<svg xmlns="http://www.w3.org/2000/svg" width="10.5" height="6.219" viewBox="0 0 10.5 6.219">
  <defs>
    <style>
      .cls-1 {
        fill: #feb960;
        fill-rule: evenodd;
      }
    </style>
  </defs>
  <path id="_" data-name="" class="cls-1" d="M1516.7,935.422h8.56l-1.86-1.887a0.425,0.425,0,1,1,.6-0.6l2.63,2.625a0.3,0.3,0,0,1,.1.137,0.355,0.355,0,0,1,.03.164,0.349,0.349,0,0,1-.03.164,0.286,0.286,0,0,1-.1.137l-2.63,2.625a0.425,0.425,0,0,1-.6-0.6l1.86-1.886h-8.56a0.438,0.438,0,1,1,0-.875h0Z" transform="translate(-1516.25 -932.75)"/>
</svg>
